<svg width="37" height="37" viewBox="0 0 37 37" fill="none" xmlns="http://www.w3.org/2000/svg">
<path fill-rule="evenodd" clip-rule="evenodd" d="M1.5 18.25C1.5 8.99923 8.99923 1.5 18.25 1.5C20.9255 1.5 23.4524 2.12673 25.694 3.2407C26.0649 3.42504 26.5151 3.27377 26.6994 2.90284C26.8838 2.53191 26.7325 2.08177 26.3616 1.89743C23.9172 0.682683 21.1622 0 18.25 0C8.1708 0 0 8.1708 0 18.25C0 28.3292 8.1708 36.5 18.25 36.5C28.3292 36.5 36.5 28.3292 36.5 18.25C36.5 17.5652 36.4622 16.8889 36.3887 16.2231C36.3431 15.8114 35.9725 15.5146 35.5608 15.5601C35.1491 15.6056 34.8522 15.9763 34.8977 16.388C34.9653 16.9991 35 17.6203 35 18.25C35 27.5008 27.5008 35 18.25 35C8.99923 35 1.5 27.5008 1.5 18.25ZM36.2803 4.78033C36.5732 4.48744 36.5732 4.01256 36.2803 3.71967C35.9874 3.42678 35.5126 3.42678 35.2197 3.71967L18.25 20.6893L13.5303 15.9697C13.2374 15.6768 12.7626 15.6768 12.4697 15.9697C12.1768 16.2626 12.1768 16.7374 12.4697 17.0303L17.7197 22.2803C18.0126 22.5732 18.4874 22.5732 18.7803 22.2803L36.2803 4.78033Z" fill="#61703D"/>
</svg>
