<svg width="26" height="25" viewBox="0 0 26 25" fill="none" xmlns="http://www.w3.org/2000/svg">
<path d="M8.41405 19.7497C8.41405 19.8511 8.29741 19.9323 8.15035 19.9323C7.9829 19.9474 7.86636 19.8664 7.86636 19.7497C7.86636 19.6483 7.98295 19.567 8.13012 19.567C8.28226 19.5519 8.41405 19.633 8.41405 19.7497ZM6.83681 19.5214C6.80132 19.6229 6.90271 19.7395 7.05485 19.7699C7.1867 19.8206 7.3389 19.7699 7.3693 19.6685C7.39982 19.567 7.30341 19.4504 7.15127 19.4047C7.01936 19.3693 6.8723 19.42 6.83681 19.5214ZM9.07851 19.4352C8.93145 19.4707 8.83001 19.567 8.84516 19.6837C8.86041 19.7851 8.99227 19.8512 9.14446 19.8156C9.29157 19.7801 9.39296 19.6837 9.37776 19.5823C9.3625 19.4859 9.22562 19.42 9.07851 19.4352ZM12.4158 0C5.38109 0 0 5.34056 0 12.3753C0 18 3.54003 22.8131 8.59671 24.5071C9.24591 24.6238 9.47412 24.2231 9.47412 23.8934C9.47412 23.5789 9.45897 21.8443 9.45897 20.7793C9.45897 20.7793 5.9086 21.5401 5.16305 19.2678C5.16305 19.2678 4.58489 17.7919 3.75309 17.4115C3.75309 17.4115 2.59164 16.6153 3.83425 16.6305C3.83425 16.6305 5.0972 16.732 5.79201 17.9391C6.90271 19.8968 8.76405 19.3339 9.48927 18.9991C9.60597 18.1876 9.93562 17.6246 10.3008 17.2899C7.46566 16.9754 4.60518 16.5646 4.60518 11.6856C4.60518 10.2908 4.99062 9.59093 5.80218 8.69827C5.67033 8.36861 5.23917 7.00941 5.93403 5.25448C6.99404 4.92483 9.43348 6.62391 9.43348 6.62391C10.4479 6.33987 11.5384 6.19281 12.6186 6.19281C13.6989 6.19281 14.7894 6.33987 15.8036 6.62391C15.8036 6.62391 18.2433 4.9198 19.3033 5.25448C19.9981 7.01438 19.567 8.36861 19.4352 8.69827C20.2467 9.59596 20.7436 10.2958 20.7436 11.6856C20.7436 16.5799 17.7563 16.9704 14.9213 17.2899C15.3879 17.6905 15.7834 18.4513 15.7834 19.6432C15.7834 21.3524 15.7683 23.4674 15.7683 23.8832C15.7683 24.2128 16.0016 24.6135 16.6457 24.4969C21.7175 22.8131 25.1561 18 25.1561 12.3753C25.1561 5.34056 19.4504 0 12.4158 0ZM4.9298 17.4927C4.86385 17.5434 4.87905 17.6601 4.96519 17.7563C5.04634 17.8375 5.16299 17.873 5.22895 17.8072C5.29484 17.7563 5.27964 17.6398 5.19345 17.5434C5.11235 17.4623 4.99576 17.4268 4.9298 17.4927ZM4.382 17.0819C4.34656 17.1478 4.3972 17.2289 4.4987 17.2797C4.5798 17.3305 4.6813 17.3152 4.7168 17.2442C4.75223 17.1783 4.70159 17.0972 4.60015 17.0464C4.4987 17.0159 4.41744 17.0312 4.382 17.0819ZM6.0253 18.8874C5.9442 18.9533 5.97461 19.1055 6.0912 19.2018C6.20785 19.3185 6.35491 19.3338 6.42086 19.2525C6.48676 19.1867 6.45635 19.0345 6.35491 18.9382C6.24334 18.8215 6.0912 18.8063 6.0253 18.8874ZM5.44709 18.1419C5.36594 18.1926 5.36594 18.3244 5.44709 18.4411C5.52825 18.5578 5.66519 18.6085 5.73109 18.5578C5.81219 18.4918 5.81219 18.36 5.73109 18.2433C5.6601 18.1267 5.5283 18.0759 5.44709 18.1419Z" fill="#9EAD7A"/>
</svg>
