<svg width="26" height="26" viewBox="0 0 26 26" fill="none" xmlns="http://www.w3.org/2000/svg">
<path d="M12.5809 6.12693C9.01158 6.12693 6.13256 9.00601 6.13256 12.5752C6.13256 16.1445 9.01158 19.0234 12.5809 19.0234C16.1502 19.0234 19.0292 16.1445 19.0292 12.5752C19.0292 9.00601 16.1502 6.12693 12.5809 6.12693ZM12.5809 16.7675C10.2744 16.7675 8.38864 14.8874 8.38864 12.5752C8.38864 10.2631 10.2687 8.38306 12.5809 8.38306C14.893 8.38306 16.7731 10.2631 16.7731 12.5752C16.7731 14.8874 14.8875 16.7675 12.5809 16.7675ZM20.797 5.86323C20.797 6.69945 20.1235 7.36724 19.2929 7.36724C18.4567 7.36724 17.7889 6.69382 17.7889 5.86323C17.7889 5.03263 18.4623 4.35915 19.2929 4.35915C20.1235 4.35915 20.797 5.03258 20.797 5.86323ZM25.0677 7.38961C24.9724 5.37497 24.5122 3.59025 23.0362 2.11992C21.5659 0.649537 19.7812 0.189342 17.7665 0.0883887C15.69 -0.0294629 9.4662 -0.0294629 7.38972 0.0883887C5.38055 0.183709 3.59594 0.643959 2.11997 2.11434C0.643959 3.58472 0.189396 5.36934 0.0883887 7.38403C-0.0294629 9.46046 -0.0294629 15.6843 0.0883887 17.7608C0.183818 19.7756 0.643959 21.5601 2.11997 23.0306C3.59594 24.5009 5.37503 24.9611 7.38972 25.0621C9.46615 25.1799 15.69 25.1799 17.7665 25.0621C19.7812 24.9667 21.5659 24.5064 23.0362 23.0306C24.5066 21.5601 24.9668 19.7756 25.0677 17.7608C25.1856 15.6844 25.1856 9.46609 25.0677 7.38961ZM22.3851 19.9888C21.9474 21.0887 21.1 21.9363 19.9944 22.3796C18.3389 23.0363 14.4104 22.8847 12.5809 22.8847C10.7512 22.8847 6.81719 23.0306 5.16727 22.3796C4.06729 21.9418 3.21979 21.0945 2.7765 19.9888C2.11997 18.3333 2.27157 14.4048 2.27157 12.5752C2.27157 10.7457 2.12561 6.81167 2.77655 5.16169C3.21438 4.06171 4.06171 3.21427 5.16733 2.77097C6.82288 2.11434 10.7513 2.26588 12.5809 2.26588C14.4104 2.26588 18.3445 2.11997 19.9945 2.77097C21.0944 3.20858 21.9418 4.05613 22.3852 5.16169C23.0418 6.81719 22.8903 10.7457 22.8903 12.5752C22.8903 14.4048 23.0418 18.3389 22.3851 19.9888Z" fill="#9EAD7A"/>
</svg>
