<svg width="22" height="22" viewBox="0 0 22 22" fill="none" xmlns="http://www.w3.org/2000/svg">
<path fill-rule="evenodd" clip-rule="evenodd" d="M5.37971 1.83063C5.19768 1.76194 4.96102 1.75015 4.08852 1.75015C3.57881 1.75015 3.24376 1.75079 2.98252 1.77341C2.73485 1.79486 2.60708 1.83273 2.51091 1.88045C2.25373 2.00809 1.98298 2.31406 1.8876 2.58486C1.80285 2.82548 1.81457 3.05991 1.92862 3.99006C2.23168 6.46159 2.91348 8.70513 3.92295 10.6807L5.32144 9.01861C6.1211 8.06824 6.4193 7.7029 6.5965 7.30196C6.76244 6.9265 6.85575 6.52301 6.87149 6.11282C6.8883 5.67478 6.78077 5.21562 6.47953 4.01066L6.35724 3.52151C6.14563 2.67506 6.07679 2.44833 5.966 2.28839C5.82155 2.07984 5.61706 1.92019 5.37971 1.83063ZM4.71436 12.0699L6.4692 9.98435C6.49432 9.95449 6.51914 9.92501 6.54365 9.89589C7.2434 9.06461 7.69406 8.52924 7.96848 7.90832C8.21101 7.35957 8.34738 6.76985 8.37039 6.17035C8.39642 5.49198 8.22656 4.81312 7.9628 3.75903C7.95356 3.72211 7.94421 3.68472 7.93474 3.64686L7.81245 3.1577C7.80226 3.11694 7.79224 3.0767 7.78235 3.03698C7.61635 2.37045 7.48657 1.84933 7.19909 1.43429C6.8813 0.975483 6.43143 0.624235 5.90925 0.427207C5.43687 0.24897 4.89983 0.249453 4.21294 0.250071C4.17201 0.250108 4.13054 0.250146 4.08852 0.250146L4.05801 0.250145C3.58702 0.250132 3.1867 0.25012 2.85313 0.279003C2.4988 0.309682 2.16802 0.376056 1.84409 0.536822C1.23704 0.838091 0.697947 1.44733 0.4728 2.08653C0.25741 2.69802 0.331973 3.30081 0.424808 4.0513C0.429758 4.09131 0.434759 4.13174 0.439771 4.17262C0.814978 7.23256 1.73938 9.99658 3.14702 12.3814C4.66356 14.9507 6.73479 17.069 9.26241 18.6374C11.7265 20.1664 14.6136 21.1662 17.8273 21.5603C17.8682 21.5653 17.9086 21.5703 17.9486 21.5753C18.6992 21.6682 19.3021 21.7427 19.9136 21.5273C20.5528 21.3022 21.162 20.7631 21.4633 20.1561C21.6248 19.8306 21.6908 19.4961 21.7212 19.1384C21.75 18.8003 21.75 18.3929 21.75 17.9117V17.8813C21.75 17.8408 21.75 17.8009 21.7501 17.7614C21.7507 17.0901 21.7511 16.5632 21.5729 16.0909C21.3759 15.5687 21.0246 15.1188 20.5658 14.801C20.1508 14.5136 19.6297 14.3838 18.9631 14.2178C18.9234 14.2079 18.8832 14.1979 18.8424 14.1877L18.1341 14.0106C18.0989 14.0018 18.0642 13.9931 18.0298 13.9845C17.0453 13.7382 16.4111 13.5795 15.7737 13.5931C15.2101 13.6051 14.6532 13.7173 14.129 13.9245C13.5361 14.1589 13.0128 14.5508 12.2006 15.1593C12.1723 15.1805 12.1436 15.202 12.1145 15.2237L9.62468 17.088C7.64357 15.7758 5.98811 14.0846 4.71436 12.0699ZM11.0174 17.9191C13.0654 19.0157 15.4117 19.7529 18.0099 20.0715C18.9402 20.1856 19.1746 20.1973 19.4153 20.1125C19.6861 20.0172 19.992 19.7464 20.1197 19.4892C20.1666 19.3946 20.205 19.2654 20.2266 19.0111C20.2494 18.7442 20.25 18.401 20.25 17.8813C20.25 17.0313 20.2384 16.8029 20.1695 16.6204C20.0799 16.3831 19.9203 16.1786 19.7117 16.0341C19.5518 15.9233 19.3251 15.8545 18.4786 15.6429L17.7703 15.4658C16.6457 15.1847 16.2174 15.084 15.8057 15.0927C15.4201 15.101 15.039 15.1778 14.6804 15.3195C14.2974 15.4709 13.9415 15.7297 13.0136 16.4244L11.0174 17.9191Z" fill="black"/>
</svg>
