<svg width="26" height="18" viewBox="0 0 26 18" fill="none" xmlns="http://www.w3.org/2000/svg">
<path fill-rule="evenodd" clip-rule="evenodd" d="M22.4063 0.528992C23.4887 0.820203 24.3411 1.6782 24.6305 2.76752C25.1561 4.74206 25.1561 8.86178 25.1561 8.86178C25.1561 8.86178 25.1561 12.9816 24.6305 14.956C24.3411 16.0454 23.4887 16.8676 22.4063 17.1589C20.4446 17.688 12.5781 17.688 12.5781 17.688C12.5781 17.688 4.71155 17.688 2.74969 17.159C1.66737 16.8677 0.814953 16.0455 0.525656 14.9561C0 12.9817 0 8.86184 0 8.86184C0 8.86184 0 4.74206 0.525656 2.76757C0.814953 1.6782 1.66737 0.820258 2.74969 0.529047C4.71155 0 12.5781 0 12.5781 0C12.5781 0 20.4446 0 22.4063 0.528992ZM10.0052 5.1214V12.6023L16.5801 8.86191L10.0052 5.1214Z" fill="#9EAD7A"/>
</svg>
