<svg width="1013" height="213" viewBox="0 0 1013 213" fill="none" xmlns="http://www.w3.org/2000/svg">
<path d="M392.516 108.861C360.595 142.157 328.674 175.688 296.977 209.219C293.182 213.234 289.834 212.997 283.807 212.997C191.17 212.761 98.3098 212.761 5.00335 212.997C1.87825 212.997 0.0924589 211.344 0.0924589 208.039C-0.130762 179.466 0.0924705 151.13 0.315692 123.266C0.315692 117.598 -0.130779 112.403 3.21754 109.098C38.9329 72.0242 69.7375 39.4374 95.408 11.8094C99.2027 7.55898 104.114 8.50359 109.248 8.50359C194.965 8.73972 280.905 8.73966 366.622 8.26738C382.47 8.26738 398.096 8.26745 413.498 8.50359C415.73 8.50359 417.74 9.44808 419.302 11.101L503.68 102.486C505.019 104.139 504.796 104.847 502.787 104.847C469.304 105.319 435.151 105.555 400.551 105.555C396.087 105.319 395.864 105.319 392.516 108.861ZM1010.17 103.903C974.453 140.976 943.649 173.563 917.978 201.191C914.183 205.441 909.049 204.497 904.139 204.497C818.422 204.26 732.481 204.26 646.764 204.733C630.916 204.733 615.29 204.733 599.888 204.497C597.656 204.497 595.647 203.552 594.084 201.899L509.707 110.514C508.144 108.861 508.59 108.153 510.599 108.153C544.083 107.681 578.236 107.445 612.835 107.681C617.299 107.681 617.299 107.681 620.648 104.139C652.568 70.8435 684.489 37.3122 716.186 3.78087C719.981 -0.233447 723.329 0.00261416 729.356 0.00261416C821.993 0.23875 914.853 0.23875 1008.16 0.00261416C1011.28 0.00261416 1012.85 1.65567 1012.85 4.96157C1012.85 33.534 1012.85 61.8703 1012.85 89.7343C1013.07 95.4016 1013.52 100.36 1010.17 103.903Z" fill="white"/>
</svg>
