<svg width="580" height="614" viewBox="0 0 580 614" fill="none" xmlns="http://www.w3.org/2000/svg">
<path opacity="0.06" d="M388.33 90.2782C433.702 114.162 470.51 153.924 492.237 202.778H446.227C431.657 177.401 411.847 155.824 388.33 139.811V90.2782ZM236.751 56.7589C254.261 38.0315 271.898 19.4398 289.535 0.712454C290.43 -0.237485 291.325 -0.237485 292.347 0.712454C309.984 19.3041 327.622 37.8958 345.259 56.6232C346.921 58.3873 347.815 60.5586 347.815 63.137C347.688 123.119 347.56 183.101 347.304 243.218C347.304 245.525 347.176 247.832 345.643 249.325C328.9 267.103 312.157 284.744 295.287 302.386C294.264 303.472 293.114 304.557 292.092 305.507C291.964 305.643 291.708 305.643 291.58 305.372C291.453 305.236 291.453 305.236 291.453 305.1C291.58 282.03 291.58 259.232 291.58 236.297C291.58 234.397 290.941 232.769 289.535 231.276C271.387 211.599 253.11 192.057 234.834 172.516C232.661 170.209 233.173 164.102 233.173 160.981C233.3 128.411 233.173 95.8421 233.045 63.2727C233.045 60.2872 234.323 59.2016 236.751 56.7589ZM192.53 88.2426V137.097C167.352 153.381 146.008 175.908 130.672 202.778H84.661C107.027 152.567 145.242 111.991 192.53 88.2426ZM192.53 521.143C146.775 498.209 109.456 459.397 86.8338 411.358H133.483C148.564 436.056 168.886 456.955 192.53 472.289V521.143ZM224.737 308.493C206.461 327.627 188.185 346.897 170.036 366.168C167.863 368.475 165.946 368.339 162.495 368.339C109.456 368.203 56.288 368.203 2.8647 368.339C1.07541 368.339 0.0529383 367.389 0.0529383 365.489C-0.0748685 349.069 0.0529432 332.784 0.18075 316.771C0.18075 313.514 -0.0748776 310.528 1.84222 308.628C22.2913 287.323 39.9287 268.595 54.6265 252.718C56.7992 250.275 59.6109 250.818 62.5505 250.818C111.628 250.954 160.834 250.954 209.912 250.682C218.986 250.682 227.933 250.682 236.751 250.818C238.029 250.818 239.18 251.361 240.074 252.311L288.385 304.829C289.152 305.779 289.024 306.186 287.874 306.186C268.703 306.457 249.148 306.593 229.338 306.593C226.782 306.457 226.654 306.457 224.737 308.493ZM344.109 557.241C326.599 575.969 308.962 594.56 291.325 613.288C290.43 614.237 289.535 614.237 288.513 613.288C270.876 594.696 253.238 576.104 235.473 557.377C233.812 555.613 232.917 553.441 233.045 550.863C233.173 490.881 233.3 430.899 233.556 370.917C233.556 368.61 233.684 366.303 235.218 364.675C251.96 346.897 268.703 329.256 285.573 311.614C286.596 310.528 287.618 309.443 288.641 308.493C288.896 308.357 289.024 308.357 289.28 308.493C289.28 308.628 289.28 308.629 289.28 308.764C289.28 331.698 289.152 354.633 289.152 377.431C289.152 379.331 289.919 380.96 291.325 382.452C309.473 402.13 327.75 421.671 346.026 441.213C348.199 443.52 347.56 449.627 347.56 452.748C347.56 485.317 347.56 517.887 347.688 550.456C347.815 553.713 346.409 554.663 344.109 557.241ZM388.33 519.108V469.711C410.313 454.648 429.228 434.699 443.415 411.358H490.064C468.082 458.04 432.168 496.038 388.33 519.108ZM578.379 305.643C557.93 326.949 540.292 345.676 525.595 361.554C523.422 363.996 520.482 363.454 517.671 363.454C468.593 363.318 419.387 363.318 370.309 363.589C361.235 363.589 352.289 363.589 343.47 363.454C342.192 363.454 341.042 362.911 340.147 361.961L291.836 309.443C290.941 308.493 291.197 308.086 292.347 308.086C311.518 307.814 331.073 307.679 350.883 307.814C353.439 307.814 353.439 307.814 355.356 305.779C373.632 286.644 391.909 267.374 410.057 248.104C412.23 245.797 414.147 245.932 417.598 245.932C470.638 246.068 523.805 246.068 577.229 245.932C579.018 245.932 579.913 246.882 579.913 248.782C579.913 265.203 579.913 281.487 579.913 297.501C580.04 300.758 580.296 303.607 578.379 305.643Z" fill="white"/>
</svg>
