<svg width="213" height="1013" viewBox="0 0 213 1013" fill="none" xmlns="http://www.w3.org/2000/svg">
<path opacity="0.05" d="M108.861 620.484C142.157 652.405 175.688 684.326 209.219 716.023C213.234 719.818 212.997 723.166 212.997 729.193C212.761 821.83 212.761 914.69 212.997 1008C212.997 1011.12 211.344 1012.91 208.039 1012.91C179.466 1013.13 151.13 1012.91 123.266 1012.68C117.598 1012.68 112.403 1013.13 109.098 1009.78C72.0242 974.067 39.4373 943.262 11.8094 917.592C7.55898 913.797 8.50358 908.886 8.50358 903.752C8.73971 818.035 8.73964 732.095 8.26737 646.378C8.26737 630.53 8.26743 614.904 8.50357 599.502C8.50357 597.27 9.44806 595.26 11.101 593.698L102.486 509.32C104.139 507.981 104.847 508.204 104.847 510.213C105.319 543.696 105.555 577.849 105.555 612.449C105.319 616.913 105.319 617.136 108.861 620.484ZM103.902 2.83123C140.976 38.5466 173.563 69.3513 201.191 95.0217C205.441 98.8165 204.496 103.95 204.496 108.861C204.26 194.578 204.26 280.519 204.733 366.236C204.733 382.084 204.733 397.71 204.497 413.112C204.497 415.344 203.552 417.353 201.899 418.916L110.514 503.293C108.861 504.856 108.153 504.41 108.153 502.401C107.681 468.917 107.445 434.764 107.681 400.165C107.681 395.701 107.681 395.701 104.139 392.352C70.8435 360.432 37.3122 328.511 3.78083 296.814C-0.233479 293.019 0.00258254 289.671 0.00258228 283.644C0.238714 191.007 0.23871 98.1468 0.00257009 4.84027C0.00256995 1.71521 1.65562 0.15271 4.96153 0.15271C33.534 0.152708 61.8702 0.152707 89.7343 0.152706C95.4015 -0.0704998 100.36 -0.517094 103.902 2.83123Z" fill="white"/>
</svg>
