<svg width="103" height="56" viewBox="0 0 103 56" fill="none" xmlns="http://www.w3.org/2000/svg">
<path d="M46.5647 0.628906H1.58289C0.70447 0.628906 0 1.37767 0 2.31132V24.6171C0 33.972 4.49644 42.6799 11.9151 47.7086L23.3432 55.4551C23.8651 55.8064 24.5347 55.8064 25.0479 55.4551L36.3368 47.7271C43.7033 42.6799 48.1476 34.009 48.1476 24.7003V2.31132C48.1476 1.38692 47.4431 0.628906 46.5647 0.628906ZM30.875 10.9267C33.9625 12.5537 36.4673 15.2622 37.9458 18.59H34.8148C33.8233 16.8614 32.4753 15.3916 30.875 14.3008V10.9267ZM20.5601 8.64346C21.7516 7.36779 22.9519 6.10136 24.1521 4.82569C24.213 4.76098 24.2738 4.76098 24.3434 4.82569C25.5436 6.09212 26.7438 7.35855 27.944 8.63422C28.0571 8.75439 28.118 8.90229 28.118 9.07793C28.1093 13.1638 28.1006 17.2496 28.0832 21.3447C28.0832 21.5019 28.0745 21.659 27.9701 21.7607C26.8308 22.9717 25.6915 24.1734 24.5434 25.3751C24.4739 25.4491 24.3956 25.523 24.326 25.5877C24.3173 25.597 24.2999 25.597 24.2912 25.5785C24.2825 25.5692 24.2825 25.5692 24.2825 25.56C24.2912 23.9885 24.2912 22.4355 24.2912 20.8733C24.2912 20.7439 24.2477 20.6329 24.1521 20.5313C22.9171 19.1909 21.6734 17.8597 20.4297 16.5286C20.2818 16.3715 20.3166 15.9555 20.3166 15.7429C20.3253 13.5243 20.3166 11.3057 20.3079 9.08718C20.3079 8.88381 20.3949 8.80986 20.5601 8.64346ZM17.5509 10.7881V14.1159C15.8376 15.2252 14.3851 16.7597 13.3415 18.59H10.2105C11.7325 15.1697 14.333 12.4058 17.5509 10.7881ZM17.5509 40.2765C14.4373 38.7142 11.8977 36.0704 10.3583 32.7981H13.5328C14.5591 34.4805 15.9419 35.904 17.5509 36.9486V40.2765ZM19.7426 25.7911C18.4989 27.0945 17.2552 28.4072 16.0202 29.7198C15.8724 29.877 15.7419 29.8677 15.5071 29.8677C11.8977 29.8585 8.27972 29.8585 4.64429 29.8677C4.52253 29.8677 4.45295 29.803 4.45295 29.6736C4.44426 28.5551 4.45296 27.4458 4.46165 26.355C4.46165 26.1331 4.44426 25.9298 4.57471 25.8003C5.96626 24.349 7.16648 23.0734 8.16665 21.9918C8.3145 21.8254 8.50584 21.8624 8.70588 21.8624C12.0456 21.8716 15.394 21.8716 18.7337 21.8532C19.3512 21.8532 19.96 21.8532 20.5601 21.8624C20.6471 21.8624 20.7254 21.8994 20.7863 21.9641L24.0738 25.5415C24.126 25.6062 24.1173 25.634 24.039 25.634C22.7344 25.6524 21.4038 25.6617 20.0557 25.6617C19.8818 25.6524 19.8731 25.6524 19.7426 25.7911ZM27.8658 42.7354C26.6742 44.011 25.474 45.2775 24.2738 46.5531C24.2129 46.6179 24.1521 46.6179 24.0825 46.5531C22.8823 45.2867 21.6821 44.0203 20.4732 42.7446C20.3601 42.6244 20.2992 42.4765 20.3079 42.3009C20.3166 38.215 20.3253 34.1292 20.3427 30.0433C20.3427 29.8862 20.3514 29.729 20.4558 29.6181C21.5951 28.4072 22.7344 27.2054 23.8825 26.0037C23.952 25.9298 24.0216 25.8558 24.0912 25.7911C24.1086 25.7819 24.1173 25.7819 24.1347 25.7911C24.1347 25.8003 24.1347 25.8003 24.1347 25.8096C24.1347 27.3718 24.126 28.9341 24.126 30.4871C24.126 30.6165 24.1782 30.7274 24.2738 30.8291C25.5088 32.1695 26.7525 33.5006 27.9962 34.8317C28.1441 34.9889 28.1006 35.4049 28.1006 35.6175C28.1006 37.836 28.1006 40.0546 28.1093 42.2732C28.118 42.495 28.0223 42.5597 27.8658 42.7354ZM30.875 40.1378V36.773C32.3709 35.7469 33.6581 34.388 34.6235 32.7981H37.7979C36.302 35.978 33.8581 38.5663 30.875 40.1378ZM43.8077 25.597C42.4161 27.0483 41.2159 28.324 40.2158 29.4055C40.0679 29.5719 39.8679 29.5349 39.6765 29.5349C36.3368 29.5257 32.9884 29.5257 29.6487 29.5442C29.0312 29.5442 28.4224 29.5442 27.8223 29.5349C27.7353 29.5349 27.657 29.4979 27.5962 29.4332L24.3086 25.8558C24.2477 25.7911 24.2651 25.7634 24.3434 25.7634C25.648 25.7449 26.9787 25.7356 28.3267 25.7449C28.5007 25.7449 28.5007 25.7449 28.6311 25.6062C29.8748 24.3028 31.1185 22.9902 32.3535 21.6775C32.5014 21.5204 32.6318 21.5296 32.8666 21.5296C36.476 21.5389 40.094 21.5389 43.7294 21.5296C43.8512 21.5296 43.9121 21.5943 43.9121 21.7237C43.9121 22.8423 43.9121 23.9515 43.9121 25.0423C43.9208 25.2642 43.9382 25.4583 43.8077 25.597Z" fill="white"/>
<path d="M59.2355 30.7274V25.0239L62.4709 30.7274H65.6019L68.8372 25.0239V30.7274H72.0552V20.8179H67.837L64.0364 27.5383L60.2357 20.8179H56.0176V30.7274H59.2355Z" fill="white"/>
<path d="M68.0718 9.0415V15.0594C68.0718 17.1762 66.4541 18.8956 64.4625 18.8956H59.6181C57.6265 18.8956 56.0088 17.1762 56.0088 15.0594V9.0415H58.7919V14.514C58.7919 15.4199 59.4877 16.1594 60.34 16.1594H63.7406C64.5929 16.1594 65.2887 15.4199 65.2887 14.514V9.0415H68.0718Z" fill="white"/>
<path d="M75.5862 13.9686L80.8393 18.8956H77.2299L72.2899 14.2551V18.8956H69.5068V9.0415H72.2899V13.682L77.2299 9.0415H80.8393L75.5862 13.9686Z" fill="white"/>
<path d="M91.6245 15.9098L93.7379 18.8956H90.546L88.6152 16.1594H84.4667V18.8956H81.6836V9.0415H90.3895C92.242 9.0415 93.7379 10.6315 93.7379 12.6004C93.7379 14.098 92.8595 15.3829 91.6245 15.9098ZM84.4667 13.6358H89.9807C90.5199 13.6358 90.9635 13.1736 90.9635 12.5912C90.9635 12.0181 90.5286 11.5466 89.9807 11.5466H84.4667V13.6358Z" fill="white"/>
<path d="M73.5166 30.6725V20.8184H76.2997V30.6725H73.5166Z" fill="white"/>
<path d="M88.0769 28.0467V30.672H77.8838V20.8179H80.6669V28.0467H88.0769Z" fill="white"/>
<path d="M66.6539 35.2298H62.4792V42.4586H59.6961V35.2298H55.5215V32.6045H66.6452V35.2298H66.6539Z" fill="white"/>
<path d="M70.3857 35.0079V36.3206H76.8738V38.7333H70.3857V40.0459H77.8044V42.4586H67.6113V32.6045H77.8044V35.0172H70.3857V35.0079Z" fill="white"/>
<path d="M81.3076 37.5315C81.3076 38.798 82.273 39.8333 83.4732 39.8333H89.6569V42.4586H83.1688C80.6118 42.4586 78.5332 40.2493 78.5332 37.5315C78.5332 34.8138 80.6118 32.6045 83.1688 32.6045H89.6569V35.2298H83.4732C82.2817 35.2298 81.3076 36.2559 81.3076 37.5315Z" fill="white"/>
<path d="M103 32.6045V42.4586H100.217V38.8442H93.7284V42.4586H90.9453V32.6045H93.7284V36.1634H100.217V32.6045H103Z" fill="white"/>
</svg>
