<svg width="42" height="64" viewBox="0 0 42 64" fill="none" xmlns="http://www.w3.org/2000/svg">
<path d="M40.695 7.67C40.2 7.41 39.605 7.45 39.145 7.765C34.67 10.865 31.685 15.735 30.955 21.13L29.52 31.735L29.51 31.78C29.33 32.59 29.84 33.39 30.65 33.57C32.045 33.88 33.03 35.14 32.995 36.575C32.96 38.185 31.535 39.5 29.825 39.5H28.325C28.075 39.5 27.825 39.515 27.58 39.54C27.535 39.45 27.495 39.355 27.45 39.26L26.21 36.85C23.78 32.13 22.5 26.835 22.5 21.525V2C22.5 1.17 21.83 0.5 21 0.5C20.17 0.5 19.5 1.17 19.5 2V21.525C19.5 26.83 18.22 32.13 15.79 36.845L14.55 39.255C14.505 39.345 14.465 39.44 14.42 39.535C14.175 39.515 13.925 39.5 13.675 39.5H12.175C10.465 39.5 9.04 38.185 9 36.575C8.965 35.145 9.955 33.88 11.345 33.57C12.155 33.39 12.665 32.59 12.485 31.78L11.04 21.13C10.31 15.735 7.325 10.86 2.85 7.765C2.39 7.45 1.795 7.41 1.3 7.67C0.81 7.93 0.5 8.44 0.5 9V48.5C0.5 49.33 1.17 50 2 50H8C8.83 50 9.5 49.33 9.5 48.5C9.5 47.67 8.83 47 8 47H3.5V12.215C5.97 14.725 7.595 18 8.07 21.535L9.365 31.11C7.3 32.12 5.945 34.265 6 36.645C6.08 39.875 8.85 42.5 12.175 42.5H13.31C12.14 46.86 12.785 51.605 15.21 55.51L19.73 62.795C20 63.23 20.48 63.5 21 63.5C21.52 63.5 22 63.23 22.275 62.79L26.795 55.505C29.215 51.605 29.86 46.86 28.695 42.495H29.83C33.15 42.5 35.92 39.875 36 36.645C36.055 34.265 34.7 32.12 32.635 31.11L33.93 21.535C34.405 18 36.03 14.73 38.5 12.215V47H33.5C32.67 47 32 47.67 32 48.5C32 49.33 32.67 50 33.5 50H40C40.83 50 41.5 49.33 41.5 48.5V9C41.5 8.44 41.19 7.93 40.695 7.67ZM18.46 38.22C19.505 36.19 20.355 34.06 21 31.87C21.645 34.06 22.495 36.19 23.54 38.22L24.62 40.325C23.15 41.01 21.895 42.075 20.995 43.41C20.095 42.075 18.84 41.01 17.37 40.325L18.46 38.22ZM24.245 53.925L21 59.155L17.755 53.925C15.74 50.68 15.225 46.72 16.245 43.105C18.17 44.055 19.5 46.035 19.5 48.325V51.325C19.5 52.155 20.17 52.825 21 52.825C21.83 52.825 22.5 52.155 22.5 51.325V48.325C22.5 46.035 23.83 44.06 25.755 43.105C26.775 46.72 26.26 50.68 24.245 53.925Z" fill="white"/>
</svg>
