<svg width="65" height="64" viewBox="0 0 65 64" fill="none" xmlns="http://www.w3.org/2000/svg">
<path d="M42.667 42.5C46.3259 42.5 49.9027 41.415 52.945 39.3822C55.9873 37.3494 58.3585 34.4601 59.7588 31.0797C61.159 27.6992 61.5253 23.9795 60.8115 20.3908C60.0977 16.8022 58.3357 13.5058 55.7485 10.9185C53.1612 8.33126 49.8648 6.56931 46.2762 5.85548C42.6875 5.14165 38.9678 5.50802 35.5873 6.90824C32.2069 8.30846 29.3176 10.6796 27.2848 13.722C25.252 16.7643 24.167 20.3411 24.167 24C24.167 28.9065 26.1161 33.6121 29.5855 37.0815C33.0549 40.5509 37.7605 42.5 42.667 42.5Z" stroke="white" stroke-width="3"/>
<path d="M8.66859 57.98L8.66473 57.98C7.74037 57.9812 6.83808 57.6977 6.0805 57.1681C5.32293 56.6385 4.74685 55.8884 4.43056 55.0198C4.11427 54.1513 4.07313 53.2064 4.31273 52.3136L2.864 51.9248L4.31274 52.3136C4.55234 51.4208 5.06105 50.6235 5.76973 50.0301L5.77044 50.0295L18.0304 39.7495L18.0309 39.7491C18.9461 38.9811 20.129 38.6081 21.3192 38.7122C22.5095 38.8163 23.6096 39.389 24.3776 40.3043C25.1456 41.2195 25.5186 42.4024 25.4145 43.5926C25.3629 44.182 25.1958 44.7554 24.9226 45.2801L26.2532 45.9727L24.9226 45.2801C24.6496 45.8047 24.2759 46.2704 23.8229 46.6506C23.8228 46.6507 23.8228 46.6507 23.8228 46.6507C23.8227 46.6508 23.8226 46.6509 23.8225 46.651L11.5636 56.9301L8.66859 57.98ZM8.66859 57.98C9.72674 57.9814 10.7515 57.6098 11.5629 56.9306L8.66859 57.98Z" stroke="white" stroke-width="3"/>
<path d="M25.4427 39.6023L25.4804 39.5309L25.4427 39.6023Z" stroke="white" stroke-width="3"/>
</svg>
