<svg width="65" height="64" viewBox="0 0 65 64" fill="none" xmlns="http://www.w3.org/2000/svg">
<g clip-path="url(#clip0_391_2812)">
<path d="M18.333 58.5C17.503 58.5 16.833 57.83 16.833 57V54C16.833 52.62 15.713 51.5 14.333 51.5H6.33301C4.95301 51.5 3.83301 52.62 3.83301 54V57C3.83301 57.83 3.16301 58.5 2.33301 58.5C1.50301 58.5 0.833008 57.83 0.833008 57V54C0.833008 50.965 3.29801 48.5 6.33301 48.5H14.333C17.368 48.5 19.833 50.965 19.833 54V57C19.833 57.83 19.163 58.5 18.333 58.5Z" fill="white"/>
<path d="M10.333 45.5C6.74801 45.5 3.83301 42.585 3.83301 39C3.83301 35.415 6.74801 32.5 10.333 32.5C13.918 32.5 16.833 35.415 16.833 39C16.833 42.585 13.918 45.5 10.333 45.5ZM10.333 35.5C8.40301 35.5 6.83301 37.07 6.83301 39C6.83301 40.93 8.40301 42.5 10.333 42.5C12.263 42.5 13.833 40.93 13.833 39C13.833 37.07 12.263 35.5 10.333 35.5Z" fill="white"/>
<path d="M40.333 58.5C39.503 58.5 38.833 57.83 38.833 57V54C38.833 52.62 37.713 51.5 36.333 51.5H28.333C26.953 51.5 25.833 52.62 25.833 54V57C25.833 57.83 25.163 58.5 24.333 58.5C23.503 58.5 22.833 57.83 22.833 57V54C22.833 50.965 25.298 48.5 28.333 48.5H36.333C39.368 48.5 41.833 50.965 41.833 54V57C41.833 57.83 41.163 58.5 40.333 58.5Z" fill="white"/>
<path d="M32.333 45.5C28.748 45.5 25.833 42.585 25.833 39C25.833 35.415 28.748 32.5 32.333 32.5C35.918 32.5 38.833 35.415 38.833 39C38.833 42.585 35.918 45.5 32.333 45.5ZM32.333 35.5C30.403 35.5 28.833 37.07 28.833 39C28.833 40.93 30.403 42.5 32.333 42.5C34.263 42.5 35.833 40.93 35.833 39C35.833 37.07 34.263 35.5 32.333 35.5Z" fill="white"/>
<path d="M62.333 58.5C61.503 58.5 60.833 57.83 60.833 57V54C60.833 52.62 59.713 51.5 58.333 51.5H50.333C48.953 51.5 47.833 52.62 47.833 54V57C47.833 57.83 47.163 58.5 46.333 58.5C45.503 58.5 44.833 57.83 44.833 57V54C44.833 50.965 47.298 48.5 50.333 48.5H58.333C61.368 48.5 63.833 50.965 63.833 54V57C63.833 57.83 63.163 58.5 62.333 58.5Z" fill="white"/>
<path d="M54.333 45.5C50.748 45.5 47.833 42.585 47.833 39C47.833 35.415 50.748 32.5 54.333 32.5C57.918 32.5 60.833 35.415 60.833 39C60.833 42.585 57.918 45.5 54.333 45.5ZM54.333 35.5C52.403 35.5 50.833 37.07 50.833 39C50.833 40.93 52.403 42.5 54.333 42.5C56.263 42.5 57.833 40.93 57.833 39C57.833 37.07 56.263 35.5 54.333 35.5Z" fill="white"/>
<path d="M21.333 29.5C17.748 29.5 14.833 26.585 14.833 23C14.833 19.415 17.748 16.5 21.333 16.5C24.918 16.5 27.833 19.415 27.833 23C27.833 26.585 24.918 29.5 21.333 29.5ZM21.333 19.5C19.403 19.5 17.833 21.07 17.833 23C17.833 24.93 19.403 26.5 21.333 26.5C23.263 26.5 24.833 24.93 24.833 23C24.833 21.07 23.263 19.5 21.333 19.5Z" fill="white"/>
<path d="M43.333 29.5C39.748 29.5 36.833 26.585 36.833 23C36.833 19.415 39.748 16.5 43.333 16.5C46.918 16.5 49.833 19.415 49.833 23C49.833 26.585 46.918 29.5 43.333 29.5ZM43.333 19.5C41.403 19.5 39.833 21.07 39.833 23C39.833 24.93 41.403 26.5 43.333 26.5C45.263 26.5 46.833 24.93 46.833 23C46.833 21.07 45.263 19.5 43.333 19.5Z" fill="white"/>
<path d="M32.333 13.5C28.748 13.5 25.833 10.585 25.833 7C25.833 3.415 28.748 0.5 32.333 0.5C35.918 0.5 38.833 3.415 38.833 7C38.833 10.585 35.918 13.5 32.333 13.5ZM32.333 3.5C30.403 3.5 28.833 5.07 28.833 7C28.833 8.93 30.403 10.5 32.333 10.5C34.263 10.5 35.833 8.93 35.833 7C35.833 5.07 34.263 3.5 32.333 3.5Z" fill="white"/>
</g>
<defs>
<clipPath id="clip0_391_2812">
<rect width="64" height="64" fill="white" transform="translate(0.333008)"/>
</clipPath>
</defs>
</svg>
